<svg xmlns="http://www.w3.org/2000/svg" version="1.1" xmlns:xlink="http://www.w3.org/1999/xlink" xmlns:svgjs="http://svgjs.dev/svgjs" width="1500" height="1500" viewBox="0 0 1500 1500"><rect width="1500" height="1500" fill="#000000"></rect><g transform="matrix(0.6666666666666666,0,0,0.6666666666666666,249.39393939393938,578.6984319824161)"><svg viewBox="0 0 396 136" data-background-color="#000000" preserveAspectRatio="xMidYMid meet" height="515" width="1500" xmlns="http://www.w3.org/2000/svg" xmlns:xlink="http://www.w3.org/1999/xlink"><g id="tight-bounds" transform="matrix(1,0,0,1,0.2400000000000091,-0.14462160080168474)"><svg viewBox="0 0 395.52 136.28924320160337" height="136.28924320160337" width="395.52"><g><svg viewBox="0 0 583.3147072539083 200.99999999999997" height="136.28924320160337" width="395.52"><g></g><g transform="matrix(1,0,0,1,254.74327868247977,0.4999999999999858)"><svg viewBox="0 0 328.57142857142856 200" height="200" width="328.57142857142856"><g id="textblocktransform"><svg viewBox="0 0 328.57142857142856 200" height="200" width="328.57142857142856" id="textblock"><g><svg viewBox="0 0 328.57142857142856 200" height="200" width="328.57142857142856"><g transform="matrix(1,0,0,1,0,0)"><svg width="328.57142857142856" viewBox="3.3 -33.48 121.9 71.21000000000001" height="200" data-palette-color="url(#a80e7d6a-3414-4b83-9763-e10b1b832bd8)"><svg></svg><svg></svg><g class="wordmark-text-0" data-fill-palette-color="primary" id="text-0"></g></svg></g></svg></g></svg></g></svg></g><g transform="matrix(1,0,0,1,0,20.923497537709153)"><svg viewBox="0 0 203.05714285714285 159.15300492458167" height="159.15300492458167" width="203.05714285714285"><g><svg xmlns="http://www.w3.org/2000/svg" xmlns:xlink="http://www.w3.org/1999/xlink" version="1.1" x="0" y="0" viewBox="0 0 99.63200062247249 78.09" enable-background="new 0 0 99.633 78.09" xml:space="preserve" width="203.05714285714285" height="159.15300492458167" class="icon-icon-0" data-fill-palette-color="accent" id="icon-0"></svg></g></svg></g></svg></g><defs></defs><mask id="14067cd4-9936-46b4-8c84-5d918939395f"><g id="SvgjsG4789"><svg viewBox="0 0 395.52 136.28924320160337" height="136.28924320160337" width="395.52"><g><svg viewBox="0 0 583.3147072539083 200.99999999999997" height="136.28924320160337" width="395.52"><g><rect width="8.288876526145552" height="200.99999999999997" x="224.75577250673854" y="0" fill="white" opacity="1" stroke-width="0" stroke="transparent" fill-opacity="1" class="rect-qz-0" rx="1%" id="SvgjsRect4788" data-palette-color="url(#a80e7d6a-3414-4b83-9763-e10b1b832bd8)"></rect></g><g transform="matrix(1,0,0,1,254.74327868247977,0.4999999999999858)"><svg viewBox="0 0 328.57142857142856 200" height="200" width="328.57142857142856"><g id="SvgjsG4787"><svg viewBox="0 0 328.57142857142856 200" height="200" width="328.57142857142856" id="SvgjsSvg4786"><g><svg viewBox="0 0 328.57142857142856 200" height="200" width="328.57142857142856"><g transform="matrix(1,0,0,1,0,0)"><svg width="328.57142857142856" viewBox="3.3 -33.48 121.9 71.21000000000001" height="200" data-palette-color="url(#a80e7d6a-3414-4b83-9763-e10b1b832bd8)"><svg></svg><svg></svg><g class="wordmark-text-0" data-fill-palette-color="primary" id="SvgjsG4785"><path d="M37.83-15.73v15.73h-4.06v-15.28c0-1.28-0.16-2.39-0.48-3.33-0.327-0.947-0.86-1.677-1.6-2.19-0.74-0.52-1.737-0.78-2.99-0.78v0c-1.18 0-2.203 0.243-3.07 0.73-0.867 0.48-1.567 1.127-2.1 1.94-0.533 0.807-0.91 1.727-1.13 2.76v0l-0.62-2.88h0.5c0.267-1.047 0.717-2.02 1.35-2.92 0.633-0.9 1.49-1.627 2.57-2.18 1.087-0.547 2.43-0.82 4.03-0.82v0c1.813 0 3.273 0.357 4.38 1.07 1.107 0.72 1.92 1.767 2.44 3.14 0.52 1.373 0.78 3.043 0.78 5.01zM7.35-18.3v18.3h-4.05v-24.4h4.05l-0.17 5.85zM22.58-15.85v15.85h-4.03v-15.28c0-1.28-0.163-2.39-0.49-3.33-0.327-0.947-0.853-1.677-1.58-2.19-0.733-0.52-1.727-0.78-2.98-0.78v0c-1.2 0-2.233 0.243-3.1 0.73-0.867 0.48-1.567 1.133-2.1 1.96-0.533 0.827-0.907 1.767-1.12 2.82v0l-0.75-2.88h0.9c0.247-1.1 0.68-2.103 1.3-3.01 0.613-0.913 1.45-1.64 2.51-2.18 1.06-0.54 2.347-0.81 3.86-0.81v0c2.253 0 3.967 0.583 5.14 1.75 1.173 1.167 1.91 2.867 2.21 5.1v0c0.087 0.333 0.147 0.697 0.18 1.09 0.033 0.387 0.05 0.773 0.05 1.16zM53.8 0.63v0c-3.5 0-6.153-0.947-7.96-2.84-1.807-1.893-2.71-4.617-2.71-8.17v0-3.72c0-3.533 0.907-6.243 2.72-8.13 1.82-1.88 4.47-2.82 7.95-2.82v0c3.5 0 6.153 0.94 7.96 2.82 1.813 1.887 2.72 4.597 2.72 8.13v0 3.72c0 3.553-0.907 6.277-2.72 8.17-1.807 1.893-4.46 2.84-7.96 2.84zM53.8-2.68v0c2.167 0 3.813-0.64 4.94-1.92 1.127-1.287 1.69-3.137 1.69-5.55v0-4.18c0-2.4-0.563-4.237-1.69-5.51-1.127-1.273-2.773-1.91-4.94-1.91v0c-2.147 0-3.787 0.637-4.92 1.91-1.133 1.273-1.7 3.11-1.7 5.51v0 4.18c0 2.413 0.567 4.263 1.7 5.55 1.133 1.28 2.773 1.92 4.92 1.92zM72.1-24.4l6.75 21.62h0.6l6.75-21.62h4.2l-7.92 24.4h-6.65l-7.93-24.4zM98.93-24.4v24.4h-4.05v-24.4zM96.9-28.4v0c-0.833 0-1.453-0.22-1.86-0.66-0.407-0.447-0.61-1.053-0.61-1.82v0-0.12c0-0.787 0.203-1.397 0.61-1.83 0.407-0.433 1.027-0.65 1.86-0.65v0c0.833 0 1.46 0.217 1.88 0.65 0.413 0.433 0.62 1.043 0.62 1.83v0 0.12c0 0.787-0.207 1.397-0.62 1.83-0.42 0.433-1.047 0.65-1.88 0.65zM115.88 0.55v0c-3.72 0-6.52-0.91-8.4-2.73-1.887-1.813-2.83-4.413-2.83-7.8v0-4.35c0-3.433 0.877-6.077 2.63-7.93 1.747-1.86 4.303-2.79 7.67-2.79v0c2.267 0 4.16 0.42 5.68 1.26 1.513 0.84 2.653 2.037 3.42 3.59 0.767 1.547 1.15 3.397 1.15 5.55v0 0.9c0 0.533-0.02 1.067-0.06 1.6-0.04 0.533-0.093 1.057-0.16 1.57v0h-3.73c0.033-0.8 0.053-1.557 0.06-2.27 0.013-0.72 0.02-1.38 0.02-1.98v0c0-1.48-0.24-2.733-0.72-3.76-0.473-1.027-1.18-1.81-2.12-2.35-0.94-0.54-2.12-0.81-3.54-0.81v0c-2.1 0-3.673 0.607-4.72 1.82-1.053 1.22-1.58 2.963-1.58 5.23v0 2.32l0.03 0.5v2.33c0 1.013 0.15 1.93 0.45 2.75 0.3 0.813 0.77 1.517 1.41 2.11 0.64 0.593 1.457 1.043 2.45 1.35 0.993 0.307 2.173 0.46 3.54 0.46v0c1.58 0 3.053-0.207 4.42-0.62 1.367-0.42 2.65-0.987 3.85-1.7v0l-0.37 3.5c-1.087 0.68-2.347 1.227-3.78 1.64-1.433 0.407-3.023 0.61-4.77 0.61zM124.13-13.63v3.05h-17.35v-3.05z" fill="white" fill-rule="nonzero" stroke="none" stroke-width="1" stroke-linecap="butt" stroke-linejoin="miter" stroke-miterlimit="10" stroke-dasharray="" stroke-dashoffset="0" font-family="none" font-weight="none" font-size="none" text-anchor="none" style="mix-blend-mode: normal" opacity="1"></path><path transform="translate(0,37.1)" d="M7.45-33.13v33.13h-4.02v-33.13zM23.88 0.63v0c-3.5 0-6.157-0.947-7.97-2.84-1.807-1.893-2.71-4.617-2.71-8.17v0-3.72c0-3.533 0.91-6.243 2.73-8.13 1.813-1.88 4.463-2.82 7.95-2.82v0c3.5 0 6.153 0.94 7.96 2.82 1.807 1.887 2.71 4.597 2.71 8.13v0 3.72c0 3.553-0.903 6.277-2.71 8.17-1.807 1.893-4.46 2.84-7.96 2.84zM23.88-2.68v0c2.167 0 3.81-0.64 4.93-1.92 1.127-1.287 1.69-3.137 1.69-5.55v0-4.18c0-2.4-0.563-4.237-1.69-5.51-1.12-1.273-2.763-1.91-4.93-1.91v0c-2.153 0-3.797 0.637-4.93 1.91-1.133 1.273-1.7 3.11-1.7 5.51v0 4.18c0 2.413 0.567 4.263 1.7 5.55 1.133 1.28 2.777 1.92 4.93 1.92zM42.17-24.4l6.75 21.62h0.6l6.76-21.62h4.2l-7.93 24.4h-6.65l-7.92-24.4zM75.13 0.55v0c-3.72 0-6.52-0.91-8.4-2.73-1.887-1.813-2.83-4.413-2.83-7.8v0-4.35c0-3.433 0.877-6.077 2.63-7.93 1.747-1.86 4.303-2.79 7.67-2.79v0c2.267 0 4.16 0.42 5.68 1.26 1.513 0.84 2.653 2.037 3.42 3.59 0.767 1.547 1.15 3.397 1.15 5.55v0 0.9c0 0.533-0.02 1.067-0.06 1.6-0.04 0.533-0.093 1.057-0.16 1.57v0h-3.73c0.033-0.8 0.053-1.557 0.06-2.27 0.013-0.72 0.02-1.38 0.02-1.98v0c0-1.48-0.24-2.733-0.72-3.76-0.473-1.027-1.18-1.81-2.12-2.35-0.94-0.54-2.12-0.81-3.54-0.81v0c-2.1 0-3.673 0.607-4.72 1.82-1.053 1.22-1.58 2.963-1.58 5.23v0 2.32l0.02 0.5v2.33c0 1.013 0.153 1.93 0.46 2.75 0.3 0.813 0.77 1.517 1.41 2.11 0.64 0.593 1.457 1.043 2.45 1.35 0.993 0.307 2.173 0.46 3.54 0.46v0c1.58 0 3.053-0.207 4.42-0.62 1.367-0.42 2.65-0.987 3.85-1.7v0l-0.37 3.5c-1.087 0.68-2.347 1.227-3.78 1.64-1.433 0.407-3.023 0.61-4.77 0.61zM83.38-13.63v3.05h-17.35v-3.05zM93.7-14.93v0l-0.92-3.12 1-0.05c0.533-2.067 1.45-3.697 2.75-4.89 1.3-1.193 3.023-1.79 5.17-1.79v0c0.533 0 1.013 0.043 1.44 0.13 0.427 0.08 0.807 0.18 1.14 0.3v0l0.25 3.92c-0.42-0.133-0.883-0.24-1.39-0.32-0.507-0.087-1.07-0.13-1.69-0.13v0c-1.833 0-3.43 0.51-4.79 1.53-1.353 1.02-2.34 2.493-2.96 4.42zM93.9-16.9v16.9h-4.05v-24.4h3.95l-0.2 7.2z" fill="white" fill-rule="nonzero" stroke="none" stroke-width="1" stroke-linecap="butt" stroke-linejoin="miter" stroke-miterlimit="10" stroke-dasharray="" stroke-dashoffset="0" font-family="none" font-weight="none" font-size="none" text-anchor="none" style="mix-blend-mode: normal" opacity="1"></path></g></svg></g></svg></g></svg></g></svg></g><g transform="matrix(1,0,0,1,0,20.923497537709153)"><svg viewBox="0 0 203.05714285714285 159.15300492458167" height="159.15300492458167" width="203.05714285714285"><g><svg xmlns="http://www.w3.org/2000/svg" xmlns:xlink="http://www.w3.org/1999/xlink" version="1.1" x="0" y="0" viewBox="0 0 99.63200062247249 78.09" enable-background="new 0 0 99.633 78.09" xml:space="preserve" width="203.05714285714285" height="159.15300492458167" class="icon-icon-0" data-fill-palette-color="accent" id="SvgjsSvg4784"><g fill="black"><path d="M96.941 0H2.693C1.205 0 0 1.206 0 2.693v56.548c0 1.489 1.205 2.694 2.693 2.694h43.085v10.771h-8.079c-1.488 0-2.693 1.204-2.693 2.692 0 1.485 1.205 2.692 2.693 2.692h21.542c1.488 0 2.692-1.207 2.692-2.692 0-1.488-1.204-2.692-2.692-2.692h-8.078V61.935h45.777c1.488 0 2.692-1.205 2.692-2.694V2.693C99.633 1.206 98.429 0 96.941 0zM94.248 56.548H5.386V5.385h88.861V56.548z" fill="black"></path><path d="M43.264 41.276c0.063 0.177 0.155 0.33 0.25 0.488 0.063 0.101 0.084 0.217 0.16 0.311 0.029 0.037 0.074 0.048 0.105 0.082 0.19 0.212 0.413 0.376 0.66 0.521 0.084 0.05 0.153 0.123 0.24 0.163 0.336 0.15 0.705 0.244 1.099 0.244l0 0c0.002 0 0.002 0 0.002 0 0.327 0 0.65-0.073 0.963-0.194 0.116-0.045 0.213-0.116 0.321-0.176 0.131-0.074 0.273-0.121 0.396-0.219l10.771-8.619c0.092-0.074 0.14-0.177 0.219-0.26 0.06-0.064 0.145-0.09 0.202-0.161 0.052-0.066 0.065-0.146 0.11-0.214 0.103-0.154 0.179-0.311 0.247-0.48 0.063-0.159 0.118-0.314 0.149-0.48 0.032-0.17 0.04-0.333 0.043-0.507-0.003-0.173-0.011-0.336-0.043-0.507-0.031-0.166-0.086-0.321-0.149-0.48-0.068-0.169-0.145-0.326-0.247-0.479-0.045-0.069-0.059-0.149-0.11-0.215-0.066-0.08-0.158-0.119-0.229-0.19-0.07-0.072-0.109-0.166-0.191-0.23L47.46 21.054c-0.095-0.074-0.208-0.097-0.308-0.157-0.161-0.099-0.313-0.192-0.494-0.256-0.177-0.062-0.353-0.083-0.537-0.107-0.118-0.016-0.221-0.07-0.344-0.07-0.053 0-0.095 0.026-0.147 0.031-0.182 0.009-0.352 0.059-0.529 0.106-0.168 0.044-0.333 0.078-0.486 0.153-0.143 0.066-0.261 0.168-0.39 0.26-0.158 0.114-0.311 0.222-0.439 0.368-0.034 0.037-0.082 0.054-0.113 0.093-0.076 0.095-0.097 0.209-0.16 0.311-0.095 0.158-0.187 0.31-0.25 0.487-0.063 0.181-0.086 0.361-0.11 0.548-0.016 0.114-0.068 0.217-0.068 0.336v17.235c0 0.119 0.053 0.223 0.068 0.337C43.177 40.915 43.201 41.095 43.264 41.276zM48.47 28.761l3.769 3.014-3.769 3.014V28.761z" fill="black"></path></g></svg></g></svg></g></svg></g><defs><mask></mask></defs></svg><rect width="395.52" height="136.28924320160337" fill="black" stroke="none" visibility="hidden"></rect></g></mask><linearGradient x1="0" x2="1" y1="0.5" y2="0.5" id="a80e7d6a-3414-4b83-9763-e10b1b832bd8"><stop stop-color="#f00b51" offset="0"></stop><stop stop-color="#730062" offset="1"></stop></linearGradient><rect width="395.52" height="136.28924320160337" fill="#ffffff" mask="url(#14067cd4-9936-46b4-8c84-5d918939395f)" data-fill-palette-color="primary"></rect><mask id="d8ccde7e-5c57-43d7-9e76-7c04200f15bf"><g id="SvgjsG4812"><svg viewBox="0 0 395.52 136.28924320160337" height="136.28924320160337" width="395.52"><g><svg viewBox="0 0 583.3147072539083 200.99999999999997" height="136.28924320160337" width="395.52"><g></g><g transform="matrix(1,0,0,1,254.74327868247977,0.4999999999999858)"><svg viewBox="0 0 328.57142857142856 200" height="200" width="328.57142857142856"><g id="SvgjsG4811"><svg viewBox="0 0 328.57142857142856 200" height="200" width="328.57142857142856" id="SvgjsSvg4810"><g><svg viewBox="0 0 328.57142857142856 200" height="200" width="328.57142857142856"><g transform="matrix(1,0,0,1,0,0)"><svg width="328.57142857142856" viewBox="3.3 -33.48 121.9 71.21000000000001" height="200" data-palette-color="url(#a80e7d6a-3414-4b83-9763-e10b1b832bd8)"><svg></svg><svg></svg><g class="wordmark-text-0" data-fill-palette-color="primary" id="SvgjsG4809"></g></svg></g></svg></g></svg></g></svg></g><g transform="matrix(1,0,0,1,0,20.923497537709153)"><svg viewBox="0 0 203.05714285714285 159.15300492458167" height="159.15300492458167" width="203.05714285714285"><g><svg xmlns="http://www.w3.org/2000/svg" xmlns:xlink="http://www.w3.org/1999/xlink" version="1.1" x="0" y="0" viewBox="0 0 99.63200062247249 78.09" enable-background="new 0 0 99.633 78.09" xml:space="preserve" width="203.05714285714285" height="159.15300492458167" class="icon-icon-0" data-fill-palette-color="accent" id="SvgjsSvg4808"><g fill="white"><path d="M96.941 0H2.693C1.205 0 0 1.206 0 2.693v56.548c0 1.489 1.205 2.694 2.693 2.694h43.085v10.771h-8.079c-1.488 0-2.693 1.204-2.693 2.692 0 1.485 1.205 2.692 2.693 2.692h21.542c1.488 0 2.692-1.207 2.692-2.692 0-1.488-1.204-2.692-2.692-2.692h-8.078V61.935h45.777c1.488 0 2.692-1.205 2.692-2.694V2.693C99.633 1.206 98.429 0 96.941 0zM94.248 56.548H5.386V5.385h88.861V56.548z" fill="white"></path><path d="M43.264 41.276c0.063 0.177 0.155 0.33 0.25 0.488 0.063 0.101 0.084 0.217 0.16 0.311 0.029 0.037 0.074 0.048 0.105 0.082 0.19 0.212 0.413 0.376 0.66 0.521 0.084 0.05 0.153 0.123 0.24 0.163 0.336 0.15 0.705 0.244 1.099 0.244l0 0c0.002 0 0.002 0 0.002 0 0.327 0 0.65-0.073 0.963-0.194 0.116-0.045 0.213-0.116 0.321-0.176 0.131-0.074 0.273-0.121 0.396-0.219l10.771-8.619c0.092-0.074 0.14-0.177 0.219-0.26 0.06-0.064 0.145-0.09 0.202-0.161 0.052-0.066 0.065-0.146 0.11-0.214 0.103-0.154 0.179-0.311 0.247-0.48 0.063-0.159 0.118-0.314 0.149-0.48 0.032-0.17 0.04-0.333 0.043-0.507-0.003-0.173-0.011-0.336-0.043-0.507-0.031-0.166-0.086-0.321-0.149-0.48-0.068-0.169-0.145-0.326-0.247-0.479-0.045-0.069-0.059-0.149-0.11-0.215-0.066-0.08-0.158-0.119-0.229-0.19-0.07-0.072-0.109-0.166-0.191-0.23L47.46 21.054c-0.095-0.074-0.208-0.097-0.308-0.157-0.161-0.099-0.313-0.192-0.494-0.256-0.177-0.062-0.353-0.083-0.537-0.107-0.118-0.016-0.221-0.07-0.344-0.07-0.053 0-0.095 0.026-0.147 0.031-0.182 0.009-0.352 0.059-0.529 0.106-0.168 0.044-0.333 0.078-0.486 0.153-0.143 0.066-0.261 0.168-0.39 0.26-0.158 0.114-0.311 0.222-0.439 0.368-0.034 0.037-0.082 0.054-0.113 0.093-0.076 0.095-0.097 0.209-0.16 0.311-0.095 0.158-0.187 0.31-0.25 0.487-0.063 0.181-0.086 0.361-0.11 0.548-0.016 0.114-0.068 0.217-0.068 0.336v17.235c0 0.119 0.053 0.223 0.068 0.337C43.177 40.915 43.201 41.095 43.264 41.276zM48.47 28.761l3.769 3.014-3.769 3.014V28.761z" fill="white"></path></g></svg></g></svg></g></svg></g><defs><mask></mask></defs><mask><g id="SvgjsG4807"><svg viewBox="0 0 395.52 136.28924320160337" height="136.28924320160337" width="395.52"><g><svg viewBox="0 0 583.3147072539083 200.99999999999997" height="136.28924320160337" width="395.52"><g><rect width="8.288876526145552" height="200.99999999999997" x="224.75577250673854" y="0" fill="black" opacity="1" stroke-width="0" stroke="transparent" fill-opacity="1" class="rect-qz-0" rx="1%" id="SvgjsRect4806" data-palette-color="url(#a80e7d6a-3414-4b83-9763-e10b1b832bd8)"></rect></g><g transform="matrix(1,0,0,1,254.74327868247977,0.4999999999999858)"><svg viewBox="0 0 328.57142857142856 200" height="200" width="328.57142857142856"><g id="SvgjsG4805"><svg viewBox="0 0 328.57142857142856 200" height="200" width="328.57142857142856" id="SvgjsSvg4804"><g><svg viewBox="0 0 328.57142857142856 200" height="200" width="328.57142857142856"><g transform="matrix(1,0,0,1,0,0)"><svg width="328.57142857142856" viewBox="3.3 -33.48 121.9 71.21000000000001" height="200" data-palette-color="url(#a80e7d6a-3414-4b83-9763-e10b1b832bd8)"><svg></svg><svg></svg><g class="wordmark-text-0" data-fill-palette-color="primary" id="SvgjsG4803"><path d="M37.83-15.73v15.73h-4.06v-15.28c0-1.28-0.16-2.39-0.48-3.33-0.327-0.947-0.86-1.677-1.6-2.19-0.74-0.52-1.737-0.78-2.99-0.78v0c-1.18 0-2.203 0.243-3.07 0.73-0.867 0.48-1.567 1.127-2.1 1.94-0.533 0.807-0.91 1.727-1.13 2.76v0l-0.62-2.88h0.5c0.267-1.047 0.717-2.02 1.35-2.92 0.633-0.9 1.49-1.627 2.57-2.18 1.087-0.547 2.43-0.82 4.03-0.82v0c1.813 0 3.273 0.357 4.38 1.07 1.107 0.72 1.92 1.767 2.44 3.14 0.52 1.373 0.78 3.043 0.78 5.01zM7.35-18.3v18.3h-4.05v-24.4h4.05l-0.17 5.85zM22.58-15.85v15.85h-4.03v-15.28c0-1.28-0.163-2.39-0.49-3.33-0.327-0.947-0.853-1.677-1.58-2.19-0.733-0.52-1.727-0.78-2.98-0.78v0c-1.2 0-2.233 0.243-3.1 0.73-0.867 0.48-1.567 1.133-2.1 1.96-0.533 0.827-0.907 1.767-1.12 2.82v0l-0.75-2.88h0.9c0.247-1.1 0.68-2.103 1.3-3.01 0.613-0.913 1.45-1.64 2.51-2.18 1.06-0.54 2.347-0.81 3.86-0.81v0c2.253 0 3.967 0.583 5.14 1.75 1.173 1.167 1.91 2.867 2.21 5.1v0c0.087 0.333 0.147 0.697 0.18 1.09 0.033 0.387 0.05 0.773 0.05 1.16zM53.8 0.63v0c-3.5 0-6.153-0.947-7.96-2.84-1.807-1.893-2.71-4.617-2.71-8.17v0-3.72c0-3.533 0.907-6.243 2.72-8.13 1.82-1.88 4.47-2.82 7.95-2.82v0c3.5 0 6.153 0.94 7.96 2.82 1.813 1.887 2.72 4.597 2.72 8.13v0 3.72c0 3.553-0.907 6.277-2.72 8.17-1.807 1.893-4.46 2.84-7.96 2.84zM53.8-2.68v0c2.167 0 3.813-0.64 4.94-1.92 1.127-1.287 1.69-3.137 1.69-5.55v0-4.18c0-2.4-0.563-4.237-1.69-5.51-1.127-1.273-2.773-1.91-4.94-1.91v0c-2.147 0-3.787 0.637-4.92 1.91-1.133 1.273-1.7 3.11-1.7 5.51v0 4.18c0 2.413 0.567 4.263 1.7 5.55 1.133 1.28 2.773 1.92 4.92 1.92zM72.1-24.4l6.75 21.62h0.6l6.75-21.62h4.2l-7.92 24.4h-6.65l-7.93-24.4zM98.93-24.4v24.4h-4.05v-24.4zM96.9-28.4v0c-0.833 0-1.453-0.22-1.86-0.66-0.407-0.447-0.61-1.053-0.61-1.82v0-0.12c0-0.787 0.203-1.397 0.61-1.83 0.407-0.433 1.027-0.65 1.86-0.65v0c0.833 0 1.46 0.217 1.88 0.65 0.413 0.433 0.62 1.043 0.62 1.83v0 0.12c0 0.787-0.207 1.397-0.62 1.83-0.42 0.433-1.047 0.65-1.88 0.65zM115.88 0.55v0c-3.72 0-6.52-0.91-8.4-2.73-1.887-1.813-2.83-4.413-2.83-7.8v0-4.35c0-3.433 0.877-6.077 2.63-7.93 1.747-1.86 4.303-2.79 7.67-2.79v0c2.267 0 4.16 0.42 5.68 1.26 1.513 0.84 2.653 2.037 3.42 3.59 0.767 1.547 1.15 3.397 1.15 5.55v0 0.9c0 0.533-0.02 1.067-0.06 1.6-0.04 0.533-0.093 1.057-0.16 1.57v0h-3.73c0.033-0.8 0.053-1.557 0.06-2.27 0.013-0.72 0.02-1.38 0.02-1.98v0c0-1.48-0.24-2.733-0.72-3.76-0.473-1.027-1.18-1.81-2.12-2.35-0.94-0.54-2.12-0.81-3.54-0.81v0c-2.1 0-3.673 0.607-4.72 1.82-1.053 1.22-1.58 2.963-1.58 5.23v0 2.32l0.03 0.5v2.33c0 1.013 0.15 1.93 0.45 2.75 0.3 0.813 0.77 1.517 1.41 2.11 0.64 0.593 1.457 1.043 2.45 1.35 0.993 0.307 2.173 0.46 3.54 0.46v0c1.58 0 3.053-0.207 4.42-0.62 1.367-0.42 2.65-0.987 3.85-1.7v0l-0.37 3.5c-1.087 0.68-2.347 1.227-3.78 1.64-1.433 0.407-3.023 0.61-4.77 0.61zM124.13-13.63v3.05h-17.35v-3.05z" fill="black" fill-rule="nonzero" stroke="none" stroke-width="1" stroke-linecap="butt" stroke-linejoin="miter" stroke-miterlimit="10" stroke-dasharray="" stroke-dashoffset="0" font-family="none" font-weight="none" font-size="none" text-anchor="none" style="mix-blend-mode: normal" opacity="1"></path><path transform="translate(0,37.1)" d="M7.45-33.13v33.13h-4.02v-33.13zM23.88 0.63v0c-3.5 0-6.157-0.947-7.97-2.84-1.807-1.893-2.71-4.617-2.71-8.17v0-3.72c0-3.533 0.91-6.243 2.73-8.13 1.813-1.88 4.463-2.82 7.95-2.82v0c3.5 0 6.153 0.94 7.96 2.82 1.807 1.887 2.71 4.597 2.71 8.13v0 3.72c0 3.553-0.903 6.277-2.71 8.17-1.807 1.893-4.46 2.84-7.96 2.84zM23.88-2.68v0c2.167 0 3.81-0.64 4.93-1.92 1.127-1.287 1.69-3.137 1.69-5.55v0-4.18c0-2.4-0.563-4.237-1.69-5.51-1.12-1.273-2.763-1.91-4.93-1.91v0c-2.153 0-3.797 0.637-4.93 1.91-1.133 1.273-1.7 3.11-1.7 5.51v0 4.18c0 2.413 0.567 4.263 1.7 5.55 1.133 1.28 2.777 1.92 4.93 1.92zM42.17-24.4l6.75 21.62h0.6l6.76-21.62h4.2l-7.93 24.4h-6.65l-7.92-24.4zM75.13 0.55v0c-3.72 0-6.52-0.91-8.4-2.73-1.887-1.813-2.83-4.413-2.83-7.8v0-4.35c0-3.433 0.877-6.077 2.63-7.93 1.747-1.86 4.303-2.79 7.67-2.79v0c2.267 0 4.16 0.42 5.68 1.26 1.513 0.84 2.653 2.037 3.42 3.59 0.767 1.547 1.15 3.397 1.15 5.55v0 0.9c0 0.533-0.02 1.067-0.06 1.6-0.04 0.533-0.093 1.057-0.16 1.57v0h-3.73c0.033-0.8 0.053-1.557 0.06-2.27 0.013-0.72 0.02-1.38 0.02-1.98v0c0-1.48-0.24-2.733-0.72-3.76-0.473-1.027-1.18-1.81-2.12-2.35-0.94-0.54-2.12-0.81-3.54-0.81v0c-2.1 0-3.673 0.607-4.72 1.82-1.053 1.22-1.58 2.963-1.58 5.23v0 2.32l0.02 0.5v2.33c0 1.013 0.153 1.93 0.46 2.75 0.3 0.813 0.77 1.517 1.41 2.11 0.64 0.593 1.457 1.043 2.45 1.35 0.993 0.307 2.173 0.46 3.54 0.46v0c1.58 0 3.053-0.207 4.42-0.62 1.367-0.42 2.65-0.987 3.85-1.7v0l-0.37 3.5c-1.087 0.68-2.347 1.227-3.78 1.64-1.433 0.407-3.023 0.61-4.77 0.61zM83.38-13.63v3.05h-17.35v-3.05zM93.7-14.93v0l-0.92-3.12 1-0.05c0.533-2.067 1.45-3.697 2.75-4.89 1.3-1.193 3.023-1.79 5.17-1.79v0c0.533 0 1.013 0.043 1.44 0.13 0.427 0.08 0.807 0.18 1.14 0.3v0l0.25 3.92c-0.42-0.133-0.883-0.24-1.39-0.32-0.507-0.087-1.07-0.13-1.69-0.13v0c-1.833 0-3.43 0.51-4.79 1.53-1.353 1.02-2.34 2.493-2.96 4.42zM93.9-16.9v16.9h-4.05v-24.4h3.95l-0.2 7.2z" fill="black" fill-rule="nonzero" stroke="none" stroke-width="1" stroke-linecap="butt" stroke-linejoin="miter" stroke-miterlimit="10" stroke-dasharray="" stroke-dashoffset="0" font-family="none" font-weight="none" font-size="none" text-anchor="none" style="mix-blend-mode: normal" opacity="1"></path></g></svg></g></svg></g></svg></g></svg></g><g transform="matrix(1,0,0,1,0,20.923497537709153)"><svg viewBox="0 0 203.05714285714285 159.15300492458167" height="159.15300492458167" width="203.05714285714285"><g><svg xmlns="http://www.w3.org/2000/svg" xmlns:xlink="http://www.w3.org/1999/xlink" version="1.1" x="0" y="0" viewBox="0 0 99.63200062247249 78.09" enable-background="new 0 0 99.633 78.09" xml:space="preserve" width="203.05714285714285" height="159.15300492458167" class="icon-icon-0" data-fill-palette-color="accent" id="SvgjsSvg4802"><g fill="black"><path d="M96.941 0H2.693C1.205 0 0 1.206 0 2.693v56.548c0 1.489 1.205 2.694 2.693 2.694h43.085v10.771h-8.079c-1.488 0-2.693 1.204-2.693 2.692 0 1.485 1.205 2.692 2.693 2.692h21.542c1.488 0 2.692-1.207 2.692-2.692 0-1.488-1.204-2.692-2.692-2.692h-8.078V61.935h45.777c1.488 0 2.692-1.205 2.692-2.694V2.693C99.633 1.206 98.429 0 96.941 0zM94.248 56.548H5.386V5.385h88.861V56.548z" fill="black"></path><path d="M43.264 41.276c0.063 0.177 0.155 0.33 0.25 0.488 0.063 0.101 0.084 0.217 0.16 0.311 0.029 0.037 0.074 0.048 0.105 0.082 0.19 0.212 0.413 0.376 0.66 0.521 0.084 0.05 0.153 0.123 0.24 0.163 0.336 0.15 0.705 0.244 1.099 0.244l0 0c0.002 0 0.002 0 0.002 0 0.327 0 0.65-0.073 0.963-0.194 0.116-0.045 0.213-0.116 0.321-0.176 0.131-0.074 0.273-0.121 0.396-0.219l10.771-8.619c0.092-0.074 0.14-0.177 0.219-0.26 0.06-0.064 0.145-0.09 0.202-0.161 0.052-0.066 0.065-0.146 0.11-0.214 0.103-0.154 0.179-0.311 0.247-0.48 0.063-0.159 0.118-0.314 0.149-0.48 0.032-0.17 0.04-0.333 0.043-0.507-0.003-0.173-0.011-0.336-0.043-0.507-0.031-0.166-0.086-0.321-0.149-0.48-0.068-0.169-0.145-0.326-0.247-0.479-0.045-0.069-0.059-0.149-0.11-0.215-0.066-0.08-0.158-0.119-0.229-0.19-0.07-0.072-0.109-0.166-0.191-0.23L47.46 21.054c-0.095-0.074-0.208-0.097-0.308-0.157-0.161-0.099-0.313-0.192-0.494-0.256-0.177-0.062-0.353-0.083-0.537-0.107-0.118-0.016-0.221-0.07-0.344-0.07-0.053 0-0.095 0.026-0.147 0.031-0.182 0.009-0.352 0.059-0.529 0.106-0.168 0.044-0.333 0.078-0.486 0.153-0.143 0.066-0.261 0.168-0.39 0.26-0.158 0.114-0.311 0.222-0.439 0.368-0.034 0.037-0.082 0.054-0.113 0.093-0.076 0.095-0.097 0.209-0.16 0.311-0.095 0.158-0.187 0.31-0.25 0.487-0.063 0.181-0.086 0.361-0.11 0.548-0.016 0.114-0.068 0.217-0.068 0.336v17.235c0 0.119 0.053 0.223 0.068 0.337C43.177 40.915 43.201 41.095 43.264 41.276zM48.47 28.761l3.769 3.014-3.769 3.014V28.761z" fill="black"></path></g></svg></g></svg></g></svg></g><defs><mask></mask></defs></svg><rect width="395.52" height="136.28924320160337" fill="black" stroke="none" visibility="hidden"></rect></g></mask></svg><rect width="395.52" height="136.28924320160337" fill="black" stroke="none" visibility="hidden"></rect></g></mask><linearGradient x1="0" x2="1" y1="0.5" y2="0.5" id="e075f7f3-b1d4-4d02-94f9-7022e0940138"><stop stop-color="#f00b51" offset="0"></stop><stop stop-color="#730062" offset="1"></stop></linearGradient><rect width="395.52" height="136.28924320160337" fill="#ffffff" mask="url(#d8ccde7e-5c57-43d7-9e76-7c04200f15bf)" data-fill-palette-color="accent"></rect></svg><rect width="395.52" height="136.28924320160337" fill="none" stroke="none" visibility="hidden"></rect></g></svg></g></svg>